<mxfile host="app.diagrams.net" agent="Mozilla/5.0 (Windows NT 10.0; Win64; x64) AppleWebKit/537.36 (KHTML, like Gecko) Chrome/133.0.0.0 Safari/537.36" version="26.1.0">
  <diagram id="C5RBs43oDa-KdzZeNtuy" name="Page-1">
    <mxGraphModel dx="1942" dy="928" grid="1" gridSize="10" guides="1" tooltips="1" connect="1" arrows="1" fold="1" page="1" pageScale="1" pageWidth="827" pageHeight="1169" math="0" shadow="0">
      <root>
        <mxCell id="WIyWlLk6GJQsqaUBKTNV-0" />
        <mxCell id="WIyWlLk6GJQsqaUBKTNV-1" parent="WIyWlLk6GJQsqaUBKTNV-0" />
        <mxCell id="dVCWxi67LEqGR76zAn8V-19" style="edgeStyle=orthogonalEdgeStyle;rounded=0;orthogonalLoop=1;jettySize=auto;html=1;exitX=0.5;exitY=1;exitDx=0;exitDy=0;entryX=0.5;entryY=0;entryDx=0;entryDy=0;" edge="1" parent="WIyWlLk6GJQsqaUBKTNV-1" source="dVCWxi67LEqGR76zAn8V-0" target="dVCWxi67LEqGR76zAn8V-6">
          <mxGeometry relative="1" as="geometry" />
        </mxCell>
        <mxCell id="dVCWxi67LEqGR76zAn8V-0" value="Start" style="ellipse;whiteSpace=wrap;html=1;" vertex="1" parent="WIyWlLk6GJQsqaUBKTNV-1">
          <mxGeometry x="180" y="40" width="80" height="40" as="geometry" />
        </mxCell>
        <mxCell id="dVCWxi67LEqGR76zAn8V-22" style="edgeStyle=orthogonalEdgeStyle;rounded=0;orthogonalLoop=1;jettySize=auto;html=1;exitX=0.5;exitY=1;exitDx=0;exitDy=0;entryX=0.5;entryY=0;entryDx=0;entryDy=0;" edge="1" parent="WIyWlLk6GJQsqaUBKTNV-1" source="dVCWxi67LEqGR76zAn8V-4" target="dVCWxi67LEqGR76zAn8V-8">
          <mxGeometry relative="1" as="geometry" />
        </mxCell>
        <mxCell id="dVCWxi67LEqGR76zAn8V-4" value="&lt;br&gt;&lt;span style=&quot;color: rgb(0, 0, 0); font-family: Helvetica; font-size: 12px; font-style: normal; font-variant-ligatures: normal; font-variant-caps: normal; font-weight: 400; letter-spacing: normal; orphans: 2; text-align: center; text-indent: 0px; text-transform: none; widows: 2; word-spacing: 0px; -webkit-text-stroke-width: 0px; white-space: normal; background-color: rgb(251, 251, 251); text-decoration-thickness: initial; text-decoration-style: initial; text-decoration-color: initial; float: none; display: inline !important;&quot;&gt;Declare array project[7]&lt;/span&gt;&lt;div&gt;&lt;br/&gt;&lt;/div&gt;" style="rounded=1;whiteSpace=wrap;html=1;arcSize=0;" vertex="1" parent="WIyWlLk6GJQsqaUBKTNV-1">
          <mxGeometry x="160" y="190" width="120" height="40" as="geometry" />
        </mxCell>
        <mxCell id="dVCWxi67LEqGR76zAn8V-21" style="edgeStyle=orthogonalEdgeStyle;rounded=0;orthogonalLoop=1;jettySize=auto;html=1;exitX=0.5;exitY=1;exitDx=0;exitDy=0;entryX=0.5;entryY=0;entryDx=0;entryDy=0;" edge="1" parent="WIyWlLk6GJQsqaUBKTNV-1" source="dVCWxi67LEqGR76zAn8V-5" target="dVCWxi67LEqGR76zAn8V-4">
          <mxGeometry relative="1" as="geometry" />
        </mxCell>
        <mxCell id="dVCWxi67LEqGR76zAn8V-5" value="&lt;br&gt;&lt;span style=&quot;color: rgb(0, 0, 0); font-family: Helvetica; font-size: 12px; font-style: normal; font-variant-ligatures: normal; font-variant-caps: normal; font-weight: 400; letter-spacing: normal; orphans: 2; text-align: center; text-indent: 0px; text-transform: none; widows: 2; word-spacing: 0px; -webkit-text-stroke-width: 0px; white-space: normal; background-color: rgb(251, 251, 251); text-decoration-thickness: initial; text-decoration-style: initial; text-decoration-color: initial; float: none; display: inline !important;&quot;&gt;Declare array assignment[7]&lt;/span&gt;&lt;div&gt;&lt;br/&gt;&lt;/div&gt;" style="rounded=1;whiteSpace=wrap;html=1;arcSize=0;" vertex="1" parent="WIyWlLk6GJQsqaUBKTNV-1">
          <mxGeometry x="160" y="140" width="120" height="40" as="geometry" />
        </mxCell>
        <mxCell id="dVCWxi67LEqGR76zAn8V-20" style="edgeStyle=orthogonalEdgeStyle;rounded=0;orthogonalLoop=1;jettySize=auto;html=1;exitX=0.5;exitY=1;exitDx=0;exitDy=0;entryX=0.5;entryY=0;entryDx=0;entryDy=0;" edge="1" parent="WIyWlLk6GJQsqaUBKTNV-1" source="dVCWxi67LEqGR76zAn8V-6" target="dVCWxi67LEqGR76zAn8V-5">
          <mxGeometry relative="1" as="geometry" />
        </mxCell>
        <mxCell id="dVCWxi67LEqGR76zAn8V-6" value="Declare array name[7]" style="rounded=1;whiteSpace=wrap;html=1;arcSize=0;" vertex="1" parent="WIyWlLk6GJQsqaUBKTNV-1">
          <mxGeometry x="160" y="90" width="120" height="40" as="geometry" />
        </mxCell>
        <mxCell id="dVCWxi67LEqGR76zAn8V-23" style="edgeStyle=orthogonalEdgeStyle;rounded=0;orthogonalLoop=1;jettySize=auto;html=1;exitX=0.5;exitY=1;exitDx=0;exitDy=0;entryX=0.5;entryY=0;entryDx=0;entryDy=0;" edge="1" parent="WIyWlLk6GJQsqaUBKTNV-1" source="dVCWxi67LEqGR76zAn8V-8" target="dVCWxi67LEqGR76zAn8V-9">
          <mxGeometry relative="1" as="geometry" />
        </mxCell>
        <mxCell id="dVCWxi67LEqGR76zAn8V-8" value="i = 0" style="rounded=1;whiteSpace=wrap;html=1;arcSize=0;" vertex="1" parent="WIyWlLk6GJQsqaUBKTNV-1">
          <mxGeometry x="160" y="240" width="120" height="40" as="geometry" />
        </mxCell>
        <mxCell id="dVCWxi67LEqGR76zAn8V-24" value="True" style="edgeStyle=orthogonalEdgeStyle;rounded=0;orthogonalLoop=1;jettySize=auto;html=1;exitX=0.5;exitY=1;exitDx=0;exitDy=0;entryX=0.5;entryY=0;entryDx=0;entryDy=0;" edge="1" parent="WIyWlLk6GJQsqaUBKTNV-1" source="dVCWxi67LEqGR76zAn8V-9" target="dVCWxi67LEqGR76zAn8V-10">
          <mxGeometry relative="1" as="geometry" />
        </mxCell>
        <mxCell id="dVCWxi67LEqGR76zAn8V-56" style="edgeStyle=orthogonalEdgeStyle;rounded=0;orthogonalLoop=1;jettySize=auto;html=1;exitX=1;exitY=0.5;exitDx=0;exitDy=0;" edge="1" parent="WIyWlLk6GJQsqaUBKTNV-1" source="dVCWxi67LEqGR76zAn8V-9" target="dVCWxi67LEqGR76zAn8V-33">
          <mxGeometry relative="1" as="geometry" />
        </mxCell>
        <mxCell id="dVCWxi67LEqGR76zAn8V-9" value="i &amp;lt; name.length" style="rhombus;whiteSpace=wrap;html=1;" vertex="1" parent="WIyWlLk6GJQsqaUBKTNV-1">
          <mxGeometry x="160" y="320" width="120" height="40" as="geometry" />
        </mxCell>
        <mxCell id="dVCWxi67LEqGR76zAn8V-25" style="edgeStyle=orthogonalEdgeStyle;rounded=0;orthogonalLoop=1;jettySize=auto;html=1;exitX=0.5;exitY=1;exitDx=0;exitDy=0;entryX=0.5;entryY=0;entryDx=0;entryDy=0;" edge="1" parent="WIyWlLk6GJQsqaUBKTNV-1" source="dVCWxi67LEqGR76zAn8V-10" target="dVCWxi67LEqGR76zAn8V-12">
          <mxGeometry relative="1" as="geometry" />
        </mxCell>
        <mxCell id="dVCWxi67LEqGR76zAn8V-10" value="Print&quot;Enter Student Name" style="shape=parallelogram;perimeter=parallelogramPerimeter;whiteSpace=wrap;html=1;fixedSize=1;" vertex="1" parent="WIyWlLk6GJQsqaUBKTNV-1">
          <mxGeometry x="120" y="400" width="200" height="40" as="geometry" />
        </mxCell>
        <mxCell id="dVCWxi67LEqGR76zAn8V-26" style="edgeStyle=orthogonalEdgeStyle;rounded=0;orthogonalLoop=1;jettySize=auto;html=1;exitX=0.5;exitY=1;exitDx=0;exitDy=0;" edge="1" parent="WIyWlLk6GJQsqaUBKTNV-1" source="dVCWxi67LEqGR76zAn8V-12" target="dVCWxi67LEqGR76zAn8V-13">
          <mxGeometry relative="1" as="geometry" />
        </mxCell>
        <mxCell id="dVCWxi67LEqGR76zAn8V-12" value="Enter name[i]" style="shape=parallelogram;perimeter=parallelogramPerimeter;whiteSpace=wrap;html=1;fixedSize=1;" vertex="1" parent="WIyWlLk6GJQsqaUBKTNV-1">
          <mxGeometry x="120" y="460" width="200" height="40" as="geometry" />
        </mxCell>
        <mxCell id="dVCWxi67LEqGR76zAn8V-27" style="edgeStyle=orthogonalEdgeStyle;rounded=0;orthogonalLoop=1;jettySize=auto;html=1;exitX=0.5;exitY=1;exitDx=0;exitDy=0;entryX=0.5;entryY=0;entryDx=0;entryDy=0;" edge="1" parent="WIyWlLk6GJQsqaUBKTNV-1" source="dVCWxi67LEqGR76zAn8V-13" target="dVCWxi67LEqGR76zAn8V-14">
          <mxGeometry relative="1" as="geometry" />
        </mxCell>
        <mxCell id="dVCWxi67LEqGR76zAn8V-13" value="Print &quot;Has (Student[i]) submit assignment?&quot;" style="shape=parallelogram;perimeter=parallelogramPerimeter;whiteSpace=wrap;html=1;fixedSize=1;" vertex="1" parent="WIyWlLk6GJQsqaUBKTNV-1">
          <mxGeometry x="120" y="520" width="200" height="40" as="geometry" />
        </mxCell>
        <mxCell id="dVCWxi67LEqGR76zAn8V-28" style="edgeStyle=orthogonalEdgeStyle;rounded=0;orthogonalLoop=1;jettySize=auto;html=1;exitX=0.5;exitY=1;exitDx=0;exitDy=0;entryX=0.5;entryY=0;entryDx=0;entryDy=0;" edge="1" parent="WIyWlLk6GJQsqaUBKTNV-1" source="dVCWxi67LEqGR76zAn8V-14" target="dVCWxi67LEqGR76zAn8V-15">
          <mxGeometry relative="1" as="geometry" />
        </mxCell>
        <mxCell id="dVCWxi67LEqGR76zAn8V-14" value="Enter assignment[i]" style="shape=parallelogram;perimeter=parallelogramPerimeter;whiteSpace=wrap;html=1;fixedSize=1;" vertex="1" parent="WIyWlLk6GJQsqaUBKTNV-1">
          <mxGeometry x="120" y="580" width="200" height="40" as="geometry" />
        </mxCell>
        <mxCell id="dVCWxi67LEqGR76zAn8V-29" style="edgeStyle=orthogonalEdgeStyle;rounded=0;orthogonalLoop=1;jettySize=auto;html=1;exitX=0.5;exitY=1;exitDx=0;exitDy=0;entryX=0.5;entryY=0;entryDx=0;entryDy=0;" edge="1" parent="WIyWlLk6GJQsqaUBKTNV-1" source="dVCWxi67LEqGR76zAn8V-15" target="dVCWxi67LEqGR76zAn8V-16">
          <mxGeometry relative="1" as="geometry" />
        </mxCell>
        <mxCell id="dVCWxi67LEqGR76zAn8V-15" value="Print &quot;Has (Student) submit&amp;nbsp; project?&quot;" style="shape=parallelogram;perimeter=parallelogramPerimeter;whiteSpace=wrap;html=1;fixedSize=1;" vertex="1" parent="WIyWlLk6GJQsqaUBKTNV-1">
          <mxGeometry x="120" y="640" width="200" height="40" as="geometry" />
        </mxCell>
        <mxCell id="dVCWxi67LEqGR76zAn8V-30" style="edgeStyle=orthogonalEdgeStyle;rounded=0;orthogonalLoop=1;jettySize=auto;html=1;exitX=0.5;exitY=1;exitDx=0;exitDy=0;entryX=0.5;entryY=0;entryDx=0;entryDy=0;" edge="1" parent="WIyWlLk6GJQsqaUBKTNV-1" source="dVCWxi67LEqGR76zAn8V-16" target="dVCWxi67LEqGR76zAn8V-17">
          <mxGeometry relative="1" as="geometry" />
        </mxCell>
        <mxCell id="dVCWxi67LEqGR76zAn8V-16" value="Enter project[i]" style="shape=parallelogram;perimeter=parallelogramPerimeter;whiteSpace=wrap;html=1;fixedSize=1;" vertex="1" parent="WIyWlLk6GJQsqaUBKTNV-1">
          <mxGeometry x="120" y="700" width="200" height="40" as="geometry" />
        </mxCell>
        <mxCell id="dVCWxi67LEqGR76zAn8V-18" style="edgeStyle=orthogonalEdgeStyle;rounded=0;orthogonalLoop=1;jettySize=auto;html=1;entryX=0;entryY=0.5;entryDx=0;entryDy=0;" edge="1" parent="WIyWlLk6GJQsqaUBKTNV-1" source="dVCWxi67LEqGR76zAn8V-17" target="dVCWxi67LEqGR76zAn8V-9">
          <mxGeometry relative="1" as="geometry">
            <Array as="points">
              <mxPoint x="90" y="780" />
              <mxPoint x="90" y="340" />
            </Array>
          </mxGeometry>
        </mxCell>
        <mxCell id="dVCWxi67LEqGR76zAn8V-17" value="i = i +1" style="rounded=1;whiteSpace=wrap;html=1;arcSize=0;" vertex="1" parent="WIyWlLk6GJQsqaUBKTNV-1">
          <mxGeometry x="160" y="760" width="120" height="40" as="geometry" />
        </mxCell>
        <mxCell id="dVCWxi67LEqGR76zAn8V-55" style="edgeStyle=orthogonalEdgeStyle;rounded=0;orthogonalLoop=1;jettySize=auto;html=1;exitX=0.5;exitY=1;exitDx=0;exitDy=0;entryX=0.5;entryY=0;entryDx=0;entryDy=0;" edge="1" parent="WIyWlLk6GJQsqaUBKTNV-1" source="dVCWxi67LEqGR76zAn8V-33" target="dVCWxi67LEqGR76zAn8V-35">
          <mxGeometry relative="1" as="geometry" />
        </mxCell>
        <mxCell id="dVCWxi67LEqGR76zAn8V-33" value="Print &quot;Students who have submitted the Assignment:&quot;" style="shape=parallelogram;perimeter=parallelogramPerimeter;whiteSpace=wrap;html=1;fixedSize=1;" vertex="1" parent="WIyWlLk6GJQsqaUBKTNV-1">
          <mxGeometry x="360" y="320" width="240" height="40" as="geometry" />
        </mxCell>
        <mxCell id="dVCWxi67LEqGR76zAn8V-54" style="edgeStyle=orthogonalEdgeStyle;rounded=0;orthogonalLoop=1;jettySize=auto;html=1;exitX=0.5;exitY=1;exitDx=0;exitDy=0;entryX=0.5;entryY=0;entryDx=0;entryDy=0;" edge="1" parent="WIyWlLk6GJQsqaUBKTNV-1" source="dVCWxi67LEqGR76zAn8V-35" target="dVCWxi67LEqGR76zAn8V-36">
          <mxGeometry relative="1" as="geometry" />
        </mxCell>
        <mxCell id="dVCWxi67LEqGR76zAn8V-35" value="i = 0" style="rounded=1;whiteSpace=wrap;html=1;arcSize=0;" vertex="1" parent="WIyWlLk6GJQsqaUBKTNV-1">
          <mxGeometry x="420" y="400" width="120" height="40" as="geometry" />
        </mxCell>
        <mxCell id="dVCWxi67LEqGR76zAn8V-53" value="True" style="edgeStyle=orthogonalEdgeStyle;rounded=0;orthogonalLoop=1;jettySize=auto;html=1;exitX=0.5;exitY=1;exitDx=0;exitDy=0;entryX=0.5;entryY=0;entryDx=0;entryDy=0;" edge="1" parent="WIyWlLk6GJQsqaUBKTNV-1" source="dVCWxi67LEqGR76zAn8V-36" target="dVCWxi67LEqGR76zAn8V-38">
          <mxGeometry relative="1" as="geometry" />
        </mxCell>
        <mxCell id="dVCWxi67LEqGR76zAn8V-57" value="False" style="edgeStyle=orthogonalEdgeStyle;rounded=0;orthogonalLoop=1;jettySize=auto;html=1;exitX=1;exitY=0.5;exitDx=0;exitDy=0;" edge="1" parent="WIyWlLk6GJQsqaUBKTNV-1" source="dVCWxi67LEqGR76zAn8V-36">
          <mxGeometry relative="1" as="geometry">
            <mxPoint x="600" y="480" as="targetPoint" />
          </mxGeometry>
        </mxCell>
        <mxCell id="dVCWxi67LEqGR76zAn8V-36" value="i &amp;lt; 7" style="rhombus;whiteSpace=wrap;html=1;" vertex="1" parent="WIyWlLk6GJQsqaUBKTNV-1">
          <mxGeometry x="420" y="460" width="120" height="40" as="geometry" />
        </mxCell>
        <mxCell id="dVCWxi67LEqGR76zAn8V-48" value="False" style="edgeStyle=orthogonalEdgeStyle;rounded=0;orthogonalLoop=1;jettySize=auto;html=1;exitX=0;exitY=1;exitDx=0;exitDy=0;" edge="1" parent="WIyWlLk6GJQsqaUBKTNV-1" source="dVCWxi67LEqGR76zAn8V-38">
          <mxGeometry relative="1" as="geometry">
            <mxPoint x="520" y="670" as="targetPoint" />
            <Array as="points">
              <mxPoint x="450" y="670" />
            </Array>
          </mxGeometry>
        </mxCell>
        <mxCell id="dVCWxi67LEqGR76zAn8V-49" value="True" style="edgeStyle=orthogonalEdgeStyle;rounded=0;orthogonalLoop=1;jettySize=auto;html=1;exitX=1;exitY=1;exitDx=0;exitDy=0;entryX=0.5;entryY=0;entryDx=0;entryDy=0;" edge="1" parent="WIyWlLk6GJQsqaUBKTNV-1" source="dVCWxi67LEqGR76zAn8V-38" target="dVCWxi67LEqGR76zAn8V-39">
          <mxGeometry relative="1" as="geometry">
            <Array as="points">
              <mxPoint x="525" y="570" />
            </Array>
          </mxGeometry>
        </mxCell>
        <mxCell id="dVCWxi67LEqGR76zAn8V-38" value="assignment[i]&amp;nbsp;" style="rhombus;whiteSpace=wrap;html=1;" vertex="1" parent="WIyWlLk6GJQsqaUBKTNV-1">
          <mxGeometry x="420" y="540" width="120" height="40" as="geometry" />
        </mxCell>
        <mxCell id="dVCWxi67LEqGR76zAn8V-39" value="print(name[i])" style="shape=parallelogram;perimeter=parallelogramPerimeter;whiteSpace=wrap;html=1;fixedSize=1;" vertex="1" parent="WIyWlLk6GJQsqaUBKTNV-1">
          <mxGeometry x="460" y="610" width="130" height="40" as="geometry" />
        </mxCell>
        <mxCell id="dVCWxi67LEqGR76zAn8V-51" style="edgeStyle=orthogonalEdgeStyle;rounded=0;orthogonalLoop=1;jettySize=auto;html=1;exitX=0.5;exitY=1;exitDx=0;exitDy=0;entryX=0;entryY=0.5;entryDx=0;entryDy=0;" edge="1" parent="WIyWlLk6GJQsqaUBKTNV-1" source="dVCWxi67LEqGR76zAn8V-44" target="dVCWxi67LEqGR76zAn8V-36">
          <mxGeometry relative="1" as="geometry" />
        </mxCell>
        <mxCell id="dVCWxi67LEqGR76zAn8V-44" value="i = i +1" style="rounded=1;whiteSpace=wrap;html=1;arcSize=0;" vertex="1" parent="WIyWlLk6GJQsqaUBKTNV-1">
          <mxGeometry x="420" y="680" width="120" height="40" as="geometry" />
        </mxCell>
        <mxCell id="dVCWxi67LEqGR76zAn8V-58" style="edgeStyle=orthogonalEdgeStyle;rounded=0;orthogonalLoop=1;jettySize=auto;html=1;exitX=0.462;exitY=0.98;exitDx=0;exitDy=0;entryX=0.837;entryY=-0.054;entryDx=0;entryDy=0;entryPerimeter=0;exitPerimeter=0;" edge="1" parent="WIyWlLk6GJQsqaUBKTNV-1" source="dVCWxi67LEqGR76zAn8V-39" target="dVCWxi67LEqGR76zAn8V-44">
          <mxGeometry relative="1" as="geometry" />
        </mxCell>
        <mxCell id="dVCWxi67LEqGR76zAn8V-59" style="edgeStyle=orthogonalEdgeStyle;rounded=0;orthogonalLoop=1;jettySize=auto;html=1;exitX=0.5;exitY=1;exitDx=0;exitDy=0;entryX=0.5;entryY=0;entryDx=0;entryDy=0;" edge="1" parent="WIyWlLk6GJQsqaUBKTNV-1" source="dVCWxi67LEqGR76zAn8V-60" target="dVCWxi67LEqGR76zAn8V-62">
          <mxGeometry relative="1" as="geometry" />
        </mxCell>
        <mxCell id="dVCWxi67LEqGR76zAn8V-60" value="Print &quot;Students who have submitted the Project:&quot;" style="shape=parallelogram;perimeter=parallelogramPerimeter;whiteSpace=wrap;html=1;fixedSize=1;" vertex="1" parent="WIyWlLk6GJQsqaUBKTNV-1">
          <mxGeometry x="600" y="460" width="240" height="40" as="geometry" />
        </mxCell>
        <mxCell id="dVCWxi67LEqGR76zAn8V-61" style="edgeStyle=orthogonalEdgeStyle;rounded=0;orthogonalLoop=1;jettySize=auto;html=1;exitX=0.5;exitY=1;exitDx=0;exitDy=0;entryX=0.5;entryY=0;entryDx=0;entryDy=0;" edge="1" parent="WIyWlLk6GJQsqaUBKTNV-1" source="dVCWxi67LEqGR76zAn8V-62" target="dVCWxi67LEqGR76zAn8V-65">
          <mxGeometry relative="1" as="geometry" />
        </mxCell>
        <mxCell id="dVCWxi67LEqGR76zAn8V-62" value="i = 0" style="rounded=1;whiteSpace=wrap;html=1;arcSize=0;" vertex="1" parent="WIyWlLk6GJQsqaUBKTNV-1">
          <mxGeometry x="660" y="540" width="120" height="40" as="geometry" />
        </mxCell>
        <mxCell id="dVCWxi67LEqGR76zAn8V-63" value="True" style="edgeStyle=orthogonalEdgeStyle;rounded=0;orthogonalLoop=1;jettySize=auto;html=1;exitX=0.5;exitY=1;exitDx=0;exitDy=0;entryX=0.5;entryY=0;entryDx=0;entryDy=0;" edge="1" parent="WIyWlLk6GJQsqaUBKTNV-1" source="dVCWxi67LEqGR76zAn8V-65" target="dVCWxi67LEqGR76zAn8V-68">
          <mxGeometry relative="1" as="geometry" />
        </mxCell>
        <mxCell id="dVCWxi67LEqGR76zAn8V-64" value="False" style="edgeStyle=orthogonalEdgeStyle;rounded=0;orthogonalLoop=1;jettySize=auto;html=1;exitX=1;exitY=0.5;exitDx=0;exitDy=0;" edge="1" parent="WIyWlLk6GJQsqaUBKTNV-1" source="dVCWxi67LEqGR76zAn8V-65">
          <mxGeometry relative="1" as="geometry">
            <mxPoint x="840" y="620" as="targetPoint" />
          </mxGeometry>
        </mxCell>
        <mxCell id="dVCWxi67LEqGR76zAn8V-65" value="i &amp;lt; 7" style="rhombus;whiteSpace=wrap;html=1;" vertex="1" parent="WIyWlLk6GJQsqaUBKTNV-1">
          <mxGeometry x="660" y="600" width="120" height="40" as="geometry" />
        </mxCell>
        <mxCell id="dVCWxi67LEqGR76zAn8V-66" value="False" style="edgeStyle=orthogonalEdgeStyle;rounded=0;orthogonalLoop=1;jettySize=auto;html=1;exitX=0;exitY=1;exitDx=0;exitDy=0;" edge="1" parent="WIyWlLk6GJQsqaUBKTNV-1" source="dVCWxi67LEqGR76zAn8V-68">
          <mxGeometry relative="1" as="geometry">
            <mxPoint x="760" y="810" as="targetPoint" />
            <Array as="points">
              <mxPoint x="690" y="810" />
            </Array>
          </mxGeometry>
        </mxCell>
        <mxCell id="dVCWxi67LEqGR76zAn8V-67" value="True" style="edgeStyle=orthogonalEdgeStyle;rounded=0;orthogonalLoop=1;jettySize=auto;html=1;exitX=1;exitY=1;exitDx=0;exitDy=0;entryX=0.5;entryY=0;entryDx=0;entryDy=0;" edge="1" parent="WIyWlLk6GJQsqaUBKTNV-1" source="dVCWxi67LEqGR76zAn8V-68" target="dVCWxi67LEqGR76zAn8V-69">
          <mxGeometry relative="1" as="geometry">
            <Array as="points">
              <mxPoint x="765" y="710" />
            </Array>
          </mxGeometry>
        </mxCell>
        <mxCell id="dVCWxi67LEqGR76zAn8V-68" value="project[i]&amp;nbsp;" style="rhombus;whiteSpace=wrap;html=1;" vertex="1" parent="WIyWlLk6GJQsqaUBKTNV-1">
          <mxGeometry x="660" y="680" width="120" height="40" as="geometry" />
        </mxCell>
        <mxCell id="dVCWxi67LEqGR76zAn8V-69" value="print(name[i])" style="shape=parallelogram;perimeter=parallelogramPerimeter;whiteSpace=wrap;html=1;fixedSize=1;" vertex="1" parent="WIyWlLk6GJQsqaUBKTNV-1">
          <mxGeometry x="700" y="750" width="130" height="40" as="geometry" />
        </mxCell>
        <mxCell id="dVCWxi67LEqGR76zAn8V-70" style="edgeStyle=orthogonalEdgeStyle;rounded=0;orthogonalLoop=1;jettySize=auto;html=1;exitX=0.5;exitY=1;exitDx=0;exitDy=0;entryX=0;entryY=0.5;entryDx=0;entryDy=0;" edge="1" parent="WIyWlLk6GJQsqaUBKTNV-1" source="dVCWxi67LEqGR76zAn8V-71" target="dVCWxi67LEqGR76zAn8V-65">
          <mxGeometry relative="1" as="geometry" />
        </mxCell>
        <mxCell id="dVCWxi67LEqGR76zAn8V-71" value="i = i +1" style="rounded=1;whiteSpace=wrap;html=1;arcSize=0;" vertex="1" parent="WIyWlLk6GJQsqaUBKTNV-1">
          <mxGeometry x="660" y="820" width="120" height="40" as="geometry" />
        </mxCell>
        <mxCell id="dVCWxi67LEqGR76zAn8V-72" style="edgeStyle=orthogonalEdgeStyle;rounded=0;orthogonalLoop=1;jettySize=auto;html=1;exitX=0.5;exitY=1;exitDx=0;exitDy=0;" edge="1" parent="WIyWlLk6GJQsqaUBKTNV-1" source="dVCWxi67LEqGR76zAn8V-69">
          <mxGeometry relative="1" as="geometry">
            <mxPoint x="760" y="819" as="targetPoint" />
          </mxGeometry>
        </mxCell>
        <mxCell id="dVCWxi67LEqGR76zAn8V-74" style="edgeStyle=orthogonalEdgeStyle;rounded=0;orthogonalLoop=1;jettySize=auto;html=1;exitX=0.5;exitY=1;exitDx=0;exitDy=0;entryX=0.5;entryY=0;entryDx=0;entryDy=0;" edge="1" parent="WIyWlLk6GJQsqaUBKTNV-1" source="dVCWxi67LEqGR76zAn8V-75" target="dVCWxi67LEqGR76zAn8V-77">
          <mxGeometry relative="1" as="geometry" />
        </mxCell>
        <mxCell id="dVCWxi67LEqGR76zAn8V-75" value="Print &quot;Students who have submitted both&amp;nbsp; the Assignment and the Project:&quot;" style="shape=parallelogram;perimeter=parallelogramPerimeter;whiteSpace=wrap;html=1;fixedSize=1;" vertex="1" parent="WIyWlLk6GJQsqaUBKTNV-1">
          <mxGeometry x="840" y="600" width="240" height="40" as="geometry" />
        </mxCell>
        <mxCell id="dVCWxi67LEqGR76zAn8V-76" style="edgeStyle=orthogonalEdgeStyle;rounded=0;orthogonalLoop=1;jettySize=auto;html=1;exitX=0.5;exitY=1;exitDx=0;exitDy=0;entryX=0.5;entryY=0;entryDx=0;entryDy=0;" edge="1" parent="WIyWlLk6GJQsqaUBKTNV-1" source="dVCWxi67LEqGR76zAn8V-77" target="dVCWxi67LEqGR76zAn8V-80">
          <mxGeometry relative="1" as="geometry" />
        </mxCell>
        <mxCell id="dVCWxi67LEqGR76zAn8V-77" value="i = 0" style="rounded=1;whiteSpace=wrap;html=1;arcSize=0;" vertex="1" parent="WIyWlLk6GJQsqaUBKTNV-1">
          <mxGeometry x="900" y="680" width="120" height="40" as="geometry" />
        </mxCell>
        <mxCell id="dVCWxi67LEqGR76zAn8V-78" value="True" style="edgeStyle=orthogonalEdgeStyle;rounded=0;orthogonalLoop=1;jettySize=auto;html=1;exitX=0.5;exitY=1;exitDx=0;exitDy=0;entryX=0.5;entryY=0;entryDx=0;entryDy=0;" edge="1" parent="WIyWlLk6GJQsqaUBKTNV-1" source="dVCWxi67LEqGR76zAn8V-80" target="dVCWxi67LEqGR76zAn8V-83">
          <mxGeometry relative="1" as="geometry" />
        </mxCell>
        <mxCell id="dVCWxi67LEqGR76zAn8V-79" value="False" style="edgeStyle=orthogonalEdgeStyle;rounded=0;orthogonalLoop=1;jettySize=auto;html=1;exitX=1;exitY=0.5;exitDx=0;exitDy=0;" edge="1" parent="WIyWlLk6GJQsqaUBKTNV-1" source="dVCWxi67LEqGR76zAn8V-80">
          <mxGeometry relative="1" as="geometry">
            <mxPoint x="1080" y="760" as="targetPoint" />
          </mxGeometry>
        </mxCell>
        <mxCell id="dVCWxi67LEqGR76zAn8V-80" value="i &amp;lt; 7" style="rhombus;whiteSpace=wrap;html=1;" vertex="1" parent="WIyWlLk6GJQsqaUBKTNV-1">
          <mxGeometry x="900" y="740" width="120" height="40" as="geometry" />
        </mxCell>
        <mxCell id="dVCWxi67LEqGR76zAn8V-146" value="True" style="edgeStyle=orthogonalEdgeStyle;rounded=0;orthogonalLoop=1;jettySize=auto;html=1;entryX=0.5;entryY=0;entryDx=0;entryDy=0;" edge="1" parent="WIyWlLk6GJQsqaUBKTNV-1" source="dVCWxi67LEqGR76zAn8V-83" target="dVCWxi67LEqGR76zAn8V-84">
          <mxGeometry relative="1" as="geometry">
            <Array as="points">
              <mxPoint x="1005" y="940" />
              <mxPoint x="1005" y="940" />
            </Array>
          </mxGeometry>
        </mxCell>
        <mxCell id="dVCWxi67LEqGR76zAn8V-182" value="False" style="edgeStyle=orthogonalEdgeStyle;rounded=0;orthogonalLoop=1;jettySize=auto;html=1;exitX=0;exitY=1;exitDx=0;exitDy=0;" edge="1" parent="WIyWlLk6GJQsqaUBKTNV-1" source="dVCWxi67LEqGR76zAn8V-83">
          <mxGeometry relative="1" as="geometry">
            <mxPoint x="1000" y="1050" as="targetPoint" />
            <Array as="points">
              <mxPoint x="928" y="980" />
              <mxPoint x="928" y="1050" />
            </Array>
          </mxGeometry>
        </mxCell>
        <mxCell id="dVCWxi67LEqGR76zAn8V-83" value="project[i] = True&lt;br&gt;assignment[i] = True" style="rhombus;whiteSpace=wrap;html=1;" vertex="1" parent="WIyWlLk6GJQsqaUBKTNV-1">
          <mxGeometry x="900" y="820" width="110" height="90" as="geometry" />
        </mxCell>
        <mxCell id="dVCWxi67LEqGR76zAn8V-160" style="edgeStyle=orthogonalEdgeStyle;rounded=0;orthogonalLoop=1;jettySize=auto;html=1;exitX=0.5;exitY=1;exitDx=0;exitDy=0;entryX=0.5;entryY=0;entryDx=0;entryDy=0;" edge="1" parent="WIyWlLk6GJQsqaUBKTNV-1" source="dVCWxi67LEqGR76zAn8V-84" target="dVCWxi67LEqGR76zAn8V-159">
          <mxGeometry relative="1" as="geometry" />
        </mxCell>
        <mxCell id="dVCWxi67LEqGR76zAn8V-84" value="print(index + i)" style="shape=parallelogram;perimeter=parallelogramPerimeter;whiteSpace=wrap;html=1;fixedSize=1;" vertex="1" parent="WIyWlLk6GJQsqaUBKTNV-1">
          <mxGeometry x="940" y="940" width="130" height="40" as="geometry" />
        </mxCell>
        <mxCell id="dVCWxi67LEqGR76zAn8V-85" style="edgeStyle=orthogonalEdgeStyle;rounded=0;orthogonalLoop=1;jettySize=auto;html=1;exitX=0.5;exitY=1;exitDx=0;exitDy=0;entryX=0;entryY=0.5;entryDx=0;entryDy=0;" edge="1" parent="WIyWlLk6GJQsqaUBKTNV-1" source="dVCWxi67LEqGR76zAn8V-86" target="dVCWxi67LEqGR76zAn8V-80">
          <mxGeometry relative="1" as="geometry" />
        </mxCell>
        <mxCell id="dVCWxi67LEqGR76zAn8V-86" value="i = i +1" style="rounded=1;whiteSpace=wrap;html=1;arcSize=0;" vertex="1" parent="WIyWlLk6GJQsqaUBKTNV-1">
          <mxGeometry x="900" y="1070" width="120" height="40" as="geometry" />
        </mxCell>
        <mxCell id="dVCWxi67LEqGR76zAn8V-126" style="edgeStyle=orthogonalEdgeStyle;rounded=0;orthogonalLoop=1;jettySize=auto;html=1;exitX=0.5;exitY=1;exitDx=0;exitDy=0;entryX=0.5;entryY=0;entryDx=0;entryDy=0;" edge="1" parent="WIyWlLk6GJQsqaUBKTNV-1" source="dVCWxi67LEqGR76zAn8V-127">
          <mxGeometry relative="1" as="geometry">
            <mxPoint x="1199.9999999999998" y="820" as="targetPoint" />
          </mxGeometry>
        </mxCell>
        <mxCell id="dVCWxi67LEqGR76zAn8V-127" value="Print &quot;Students who have not submitted both&amp;nbsp; the Assignment and the Project:&quot;" style="shape=parallelogram;perimeter=parallelogramPerimeter;whiteSpace=wrap;html=1;fixedSize=1;" vertex="1" parent="WIyWlLk6GJQsqaUBKTNV-1">
          <mxGeometry x="1080" y="740" width="240" height="40" as="geometry" />
        </mxCell>
        <mxCell id="dVCWxi67LEqGR76zAn8V-147" style="edgeStyle=orthogonalEdgeStyle;rounded=0;orthogonalLoop=1;jettySize=auto;html=1;exitX=0.5;exitY=1;exitDx=0;exitDy=0;entryX=0.5;entryY=0;entryDx=0;entryDy=0;" edge="1" parent="WIyWlLk6GJQsqaUBKTNV-1" source="dVCWxi67LEqGR76zAn8V-148" target="dVCWxi67LEqGR76zAn8V-151">
          <mxGeometry relative="1" as="geometry" />
        </mxCell>
        <mxCell id="dVCWxi67LEqGR76zAn8V-148" value="i = 0&lt;br&gt;Either = true" style="rounded=1;whiteSpace=wrap;html=1;arcSize=0;" vertex="1" parent="WIyWlLk6GJQsqaUBKTNV-1">
          <mxGeometry x="1140" y="820" width="120" height="40" as="geometry" />
        </mxCell>
        <mxCell id="dVCWxi67LEqGR76zAn8V-149" value="True" style="edgeStyle=orthogonalEdgeStyle;rounded=0;orthogonalLoop=1;jettySize=auto;html=1;exitX=0.5;exitY=1;exitDx=0;exitDy=0;entryX=0.5;entryY=0;entryDx=0;entryDy=0;" edge="1" parent="WIyWlLk6GJQsqaUBKTNV-1" source="dVCWxi67LEqGR76zAn8V-151" target="dVCWxi67LEqGR76zAn8V-154">
          <mxGeometry relative="1" as="geometry" />
        </mxCell>
        <mxCell id="dVCWxi67LEqGR76zAn8V-150" value="False" style="edgeStyle=orthogonalEdgeStyle;rounded=0;orthogonalLoop=1;jettySize=auto;html=1;exitX=1;exitY=0.5;exitDx=0;exitDy=0;" edge="1" parent="WIyWlLk6GJQsqaUBKTNV-1" source="dVCWxi67LEqGR76zAn8V-151">
          <mxGeometry relative="1" as="geometry">
            <mxPoint x="1320" y="900" as="targetPoint" />
          </mxGeometry>
        </mxCell>
        <mxCell id="dVCWxi67LEqGR76zAn8V-151" value="i &amp;lt; 7" style="rhombus;whiteSpace=wrap;html=1;" vertex="1" parent="WIyWlLk6GJQsqaUBKTNV-1">
          <mxGeometry x="1140" y="880" width="120" height="40" as="geometry" />
        </mxCell>
        <mxCell id="dVCWxi67LEqGR76zAn8V-152" value="False" style="edgeStyle=orthogonalEdgeStyle;rounded=0;orthogonalLoop=1;jettySize=auto;html=1;exitX=0;exitY=1;exitDx=0;exitDy=0;" edge="1" parent="WIyWlLk6GJQsqaUBKTNV-1" source="dVCWxi67LEqGR76zAn8V-154">
          <mxGeometry relative="1" as="geometry">
            <mxPoint x="1240" y="1190" as="targetPoint" />
            <Array as="points">
              <mxPoint x="1168" y="1120" />
              <mxPoint x="1168" y="1190" />
            </Array>
          </mxGeometry>
        </mxCell>
        <mxCell id="dVCWxi67LEqGR76zAn8V-153" value="True" style="edgeStyle=orthogonalEdgeStyle;rounded=0;orthogonalLoop=1;jettySize=auto;html=1;entryX=0.5;entryY=0;entryDx=0;entryDy=0;" edge="1" parent="WIyWlLk6GJQsqaUBKTNV-1" source="dVCWxi67LEqGR76zAn8V-154" target="dVCWxi67LEqGR76zAn8V-155">
          <mxGeometry relative="1" as="geometry">
            <Array as="points">
              <mxPoint x="1250" y="1070" />
              <mxPoint x="1245" y="1070" />
            </Array>
          </mxGeometry>
        </mxCell>
        <mxCell id="dVCWxi67LEqGR76zAn8V-154" value="project[i] = False&lt;br&gt;assignment[i] = False" style="rhombus;whiteSpace=wrap;html=1;" vertex="1" parent="WIyWlLk6GJQsqaUBKTNV-1">
          <mxGeometry x="1140" y="960" width="110" height="90" as="geometry" />
        </mxCell>
        <mxCell id="dVCWxi67LEqGR76zAn8V-164" style="edgeStyle=orthogonalEdgeStyle;rounded=0;orthogonalLoop=1;jettySize=auto;html=1;exitX=0.5;exitY=1;exitDx=0;exitDy=0;entryX=0.5;entryY=0;entryDx=0;entryDy=0;" edge="1" parent="WIyWlLk6GJQsqaUBKTNV-1" source="dVCWxi67LEqGR76zAn8V-155" target="dVCWxi67LEqGR76zAn8V-162">
          <mxGeometry relative="1" as="geometry" />
        </mxCell>
        <mxCell id="dVCWxi67LEqGR76zAn8V-155" value="print(name[i])" style="shape=parallelogram;perimeter=parallelogramPerimeter;whiteSpace=wrap;html=1;fixedSize=1;" vertex="1" parent="WIyWlLk6GJQsqaUBKTNV-1">
          <mxGeometry x="1180" y="1080" width="130" height="40" as="geometry" />
        </mxCell>
        <mxCell id="dVCWxi67LEqGR76zAn8V-156" style="edgeStyle=orthogonalEdgeStyle;rounded=0;orthogonalLoop=1;jettySize=auto;html=1;exitX=0.5;exitY=1;exitDx=0;exitDy=0;entryX=0;entryY=0.5;entryDx=0;entryDy=0;" edge="1" parent="WIyWlLk6GJQsqaUBKTNV-1" source="dVCWxi67LEqGR76zAn8V-157" target="dVCWxi67LEqGR76zAn8V-151">
          <mxGeometry relative="1" as="geometry" />
        </mxCell>
        <mxCell id="dVCWxi67LEqGR76zAn8V-157" value="i = i +1" style="rounded=1;whiteSpace=wrap;html=1;arcSize=0;" vertex="1" parent="WIyWlLk6GJQsqaUBKTNV-1">
          <mxGeometry x="1140" y="1200" width="120" height="40" as="geometry" />
        </mxCell>
        <mxCell id="dVCWxi67LEqGR76zAn8V-158" style="edgeStyle=orthogonalEdgeStyle;rounded=0;orthogonalLoop=1;jettySize=auto;html=1;exitX=0.5;exitY=1;exitDx=0;exitDy=0;entryX=0.829;entryY=0.062;entryDx=0;entryDy=0;entryPerimeter=0;" edge="1" parent="WIyWlLk6GJQsqaUBKTNV-1" source="dVCWxi67LEqGR76zAn8V-162" target="dVCWxi67LEqGR76zAn8V-157">
          <mxGeometry relative="1" as="geometry" />
        </mxCell>
        <mxCell id="dVCWxi67LEqGR76zAn8V-159" value="print(name[i])" style="shape=parallelogram;perimeter=parallelogramPerimeter;whiteSpace=wrap;html=1;fixedSize=1;" vertex="1" parent="WIyWlLk6GJQsqaUBKTNV-1">
          <mxGeometry x="940" y="990" width="130" height="40" as="geometry" />
        </mxCell>
        <mxCell id="dVCWxi67LEqGR76zAn8V-161" style="edgeStyle=orthogonalEdgeStyle;rounded=0;orthogonalLoop=1;jettySize=auto;html=1;exitX=0.5;exitY=1;exitDx=0;exitDy=0;entryX=0.837;entryY=0.074;entryDx=0;entryDy=0;entryPerimeter=0;" edge="1" parent="WIyWlLk6GJQsqaUBKTNV-1" source="dVCWxi67LEqGR76zAn8V-159" target="dVCWxi67LEqGR76zAn8V-86">
          <mxGeometry relative="1" as="geometry">
            <Array as="points">
              <mxPoint x="1000" y="1030" />
              <mxPoint x="1000" y="1067" />
            </Array>
          </mxGeometry>
        </mxCell>
        <mxCell id="dVCWxi67LEqGR76zAn8V-162" value="Either = false" style="rounded=1;whiteSpace=wrap;html=1;" vertex="1" parent="WIyWlLk6GJQsqaUBKTNV-1">
          <mxGeometry x="1191" y="1139" width="100" height="30" as="geometry" />
        </mxCell>
        <mxCell id="dVCWxi67LEqGR76zAn8V-166" value="False" style="edgeStyle=orthogonalEdgeStyle;rounded=0;orthogonalLoop=1;jettySize=auto;html=1;" edge="1" parent="WIyWlLk6GJQsqaUBKTNV-1" source="dVCWxi67LEqGR76zAn8V-165">
          <mxGeometry relative="1" as="geometry">
            <mxPoint x="1550" y="900" as="targetPoint" />
            <Array as="points">
              <mxPoint x="1460" y="900" />
              <mxPoint x="1460" y="900" />
            </Array>
          </mxGeometry>
        </mxCell>
        <mxCell id="dVCWxi67LEqGR76zAn8V-169" value="true" style="edgeStyle=orthogonalEdgeStyle;rounded=0;orthogonalLoop=1;jettySize=auto;html=1;exitX=0.5;exitY=1;exitDx=0;exitDy=0;entryX=0.5;entryY=0;entryDx=0;entryDy=0;" edge="1" parent="WIyWlLk6GJQsqaUBKTNV-1" source="dVCWxi67LEqGR76zAn8V-165" target="dVCWxi67LEqGR76zAn8V-168">
          <mxGeometry relative="1" as="geometry" />
        </mxCell>
        <mxCell id="dVCWxi67LEqGR76zAn8V-165" value="either" style="rhombus;whiteSpace=wrap;html=1;" vertex="1" parent="WIyWlLk6GJQsqaUBKTNV-1">
          <mxGeometry x="1320" y="880" width="120" height="40" as="geometry" />
        </mxCell>
        <mxCell id="dVCWxi67LEqGR76zAn8V-167" value="End" style="ellipse;whiteSpace=wrap;html=1;" vertex="1" parent="WIyWlLk6GJQsqaUBKTNV-1">
          <mxGeometry x="1550" y="875" width="80" height="50" as="geometry" />
        </mxCell>
        <mxCell id="dVCWxi67LEqGR76zAn8V-170" style="edgeStyle=orthogonalEdgeStyle;rounded=0;orthogonalLoop=1;jettySize=auto;html=1;" edge="1" parent="WIyWlLk6GJQsqaUBKTNV-1" source="dVCWxi67LEqGR76zAn8V-168">
          <mxGeometry relative="1" as="geometry">
            <mxPoint x="1530" y="900" as="targetPoint" />
            <Array as="points">
              <mxPoint x="1530" y="990" />
              <mxPoint x="1530" y="900" />
            </Array>
          </mxGeometry>
        </mxCell>
        <mxCell id="dVCWxi67LEqGR76zAn8V-168" value="Print&quot; All student have submitted either the assignment or the project&quot;" style="shape=parallelogram;perimeter=parallelogramPerimeter;whiteSpace=wrap;html=1;fixedSize=1;" vertex="1" parent="WIyWlLk6GJQsqaUBKTNV-1">
          <mxGeometry x="1300" y="960" width="160" height="60" as="geometry" />
        </mxCell>
      </root>
    </mxGraphModel>
  </diagram>
</mxfile>
